<?xml version="1.0" standalone="no"?>
<!DOCTYPE svg PUBLIC "-//W3C//DTD SVG 20010904//EN"
 "http://www.w3.org/TR/2001/REC-SVG-20010904/DTD/svg10.dtd">
<svg version="1.0" xmlns="http://www.w3.org/2000/svg"
 width="344.000000pt" height="304.000000pt" viewBox="0 0 344.000000 304.000000"
 preserveAspectRatio="xMidYMid meet">
<metadata>
Created by potrace 1.16, written by Peter Selinger 2001-2019
</metadata>
<g transform="translate(0.000000,304.000000) scale(0.100000,-0.100000)"
fill="#000000" stroke="none">
<path d="M1388 2664 l-3 -139 -272 -3 -273 -2 -2 -278 -3 -277 -207 -3 -208
-2 0 -408 0 -407 186 3 c102 2 197 1 210 -2 l24 -6 0 -280 0 -280 275 0 275 0
0 -136 0 -137 218 6 c237 6 341 22 500 78 397 137 712 474 817 874 35 132 44
326 22 470 -80 518 -465 921 -992 1036 -69 16 -145 22 -327 26 l-237 6 -3
-139z"/>
</g>
</svg>
